USFL
nRows=240
nColumns=2
inDegrees=yes
endheader
time	tib_ant_r	
2.32863	 74.338380	
2.3619	 74.343727	
2.39516	 74.340188	
2.42843	 74.380912	
2.46169	 74.366439	
2.49496	 74.387691	
2.52823	 74.437463	
2.56149	 74.445947	
2.59476	 74.437317	
2.62802	 74.448607	
2.66129	 74.459755	
2.69456	 74.431823	
2.72782	 74.422862	
2.76109	 74.434479	
2.79435	 74.446795	
2.82762	 74.453656	
2.86089	 74.451403	
2.89415	 74.439929	
2.92742	 74.450761	
2.96069	 74.455187	
2.99395	 74.459037	
3.02722	 74.446549	
3.06048	 74.505639	
3.09375	 74.620190	
3.12702	 74.704344	
3.16028	 74.757380	
3.19355	 74.786966	
3.22681	 74.810185	
3.26008	 74.816985	
3.29335	 74.822697	
3.32661	 74.777971	
3.35988	 74.774294	
3.39315	 74.744006	
3.42641	 74.745956	
3.45968	 74.827716	
3.49294	 74.730469	
3.52621	 74.623993	
3.55948	 74.578687	
3.59274	 74.568296	
3.62601	 74.547025	
3.65927	 74.531820	
3.69254	 74.514795	
3.72581	 74.492441	
3.75907	 74.521626	
3.79234	 74.520432	
3.8256	 74.546870	
3.85887	 74.538992	
3.89214	 74.551026	
3.9254	 74.518266	
3.95867	 74.482293	
3.99194	 74.451711	
4.0252	 74.425001	
4.05847	 74.440630	
4.09173	 74.571772	
4.125	 74.613220	
4.15827	 74.642446	
4.19153	 74.596988	
4.2248	 74.600636	
4.25806	 74.516249	
4.29133	 74.515493	
4.3246	 74.362499	
4.35786	 74.113152	
4.39113	 74.182651	
4.4244	 74.192248	
4.45766	 74.280582	
4.49093	 74.766713	
4.52419	 74.756117	
4.55746	 75.091708	
4.59073	 74.923357	
4.62399	 74.961330	
4.65726	 75.173265	
4.69052	 74.858143	
4.72379	 74.389838	
4.75706	 74.219550	
4.79032	 73.192251	
4.82359	 72.694431	
4.85685	 66.615015	
4.89012	 66.131957	
4.92339	 65.853073	
4.95665	 65.581300	
4.98992	 65.405002	
5.02319	 65.317524	
5.05645	 65.279069	
5.08972	 65.279673	
5.12298	 65.191651	
5.15625	 65.370266	
5.18952	 65.547923	
5.22278	 65.578811	
5.25605	 65.648571	
5.28931	 65.720208	
5.32258	 65.645506	
5.35585	 65.584177	
5.38911	 65.554214	
5.42238	 65.547544	
5.45565	 65.648311	
5.48891	 65.665131	
5.52218	 65.764900	
5.55544	 65.829622	
5.58871	 65.855736	
5.62198	 65.747171	
5.65524	 65.691221	
5.68851	 65.487759	
5.72177	 65.442799	
5.75504	 65.447564	
5.78831	 65.374894	
5.82157	 65.413632	
5.85484	 65.403599	
5.8881	 65.512436	
5.92137	 65.527636	
5.95464	 65.556193	
5.9879	 65.510723	
6.02117	 65.448613	
6.05444	 65.402029	
6.0877	 65.423095	
6.12097	 65.399767	
6.15423	 65.323027	
6.1875	 65.308795	
6.22077	 65.278342	
6.25403	 65.218613	
6.2873	 65.155216	
6.32056	 65.141806	
6.35383	 65.146713	
6.3871	 65.144629	
6.42036	 65.149417	
6.45363	 65.185093	
6.4869	 65.263374	
6.52016	 65.152615	
6.55343	 65.063470	
6.58669	 64.934120	
6.61996	 64.939697	
6.65323	 64.824015	
6.68649	 64.825029	
6.71976	 64.854906	
6.75302	 64.818245	
6.78629	 64.778046	
6.81956	 64.781540	
6.85282	 64.746205	
6.88609	 64.748935	
6.91935	 64.874685	
6.95262	 64.882286	
6.98589	 64.799991	
7.01915	 64.707611	
7.05242	 64.681910	
7.08569	 64.722061	
7.11895	 64.808759	
7.15222	 64.945333	
7.18548	 64.957009	
7.21875	 65.036341	
7.25202	 64.988392	
7.28528	 64.921931	
7.31855	 64.922952	
7.35181	 64.908117	
7.38508	 64.888231	
7.41835	 64.840353	
7.45161	 64.901640	
7.48488	 64.860739	
7.51815	 64.855100	
7.55141	 64.913723	
7.58468	 64.906908	
7.61794	 64.954226	
7.65121	 64.961477	
7.68448	 64.947267	
7.71774	 64.958820	
7.75101	 64.933164	
7.78427	 64.894685	
7.81754	 64.890132	
7.85081	 64.853958	
7.88407	 64.895033	
7.91734	 64.856774	
7.9506	 64.869008	
7.98387	 64.850409	
8.01714	 64.819321	
8.0504	 64.850208	
8.08367	 64.795537	
8.11694	 64.781137	
8.1502	 64.848551	
8.18347	 64.766762	
8.21673	 64.664709	
8.25	 64.632170	
8.28327	 64.738826	
8.31653	 64.782049	
8.3498	 64.707434	
8.38306	 64.741574	
8.41633	 64.777883	
8.4496	 64.735379	
8.48286	 64.723540	
8.51613	 64.678964	
8.5494	 64.713231	
8.58266	 64.788729	
8.61593	 64.780199	
8.64919	 64.880684	
8.68246	 64.906602	
8.71573	 64.797183	
8.74899	 64.779847	
8.78226	 64.745229	
8.81552	 64.761717	
8.84879	 64.747912	
8.88206	 64.748281	
8.91532	 64.672904	
8.94859	 64.627104	
8.98185	 64.635151	
9.01512	 64.637919	
9.04839	 64.671852	
9.08165	 64.701483	
9.11492	 64.628163	
9.14819	 64.480720	
9.18145	 64.775433	
9.21472	 64.863880	
9.24798	 64.754435	
9.28125	 65.157905	
9.31452	 64.914850	
9.34778	 64.667702	
9.38105	 65.412595	
9.41431	 65.115190	
9.44758	 65.545438	
9.48085	 65.525486	
9.51411	 65.141980	
9.54738	 65.275588	
9.58065	 65.265845	
9.61391	 65.105831	
9.64718	 81.121464	
9.68044	 81.426801	
9.71371	 81.476722	
9.74698	 81.967407	
9.78024	 81.724637	
9.81351	 82.181549	
9.84677	 82.280260	
9.88004	 82.324613	
9.91331	 82.379658	
9.94657	 82.411397	
9.97984	 82.480354	
10.0131	 82.366398	
10.0464	 82.377450	
10.0796	 82.437991	
10.1129	 82.387184	
10.1462	 82.450700	
10.1794	 82.413283	
10.2127	 82.355700	
10.246	 82.432610	
10.2792	 82.414895	
